PathFileType	4	(X/Y/Z)	OpenSim_Sub04_CSBaseline_Gyro.trc
DataRate	CameraRate	NumFrames	NumMarkers	Units	OrigDataRate	OrigDataStartFrame	OrigNumFrames
100	100	31	8	m	100	1011	8083
Frame#	Time	torso_imu_offset_imu	pelvis_imu_offset_imu	tibia_r_imu_offset_imu	femur_r_imu_offset_imu	tibia_l_imu_offset_imu	femur_l_imu_offset_imu	toes_r_imu_offset_imu	toes_l_imu_offset_imu
				X1	Y1	Z1	X2	Y2	Z2	X3	Y3	Z3	X4	Y4	Z4	X5	Y5	Z5	X6	Y6	Z6	X7	Y7	Z7	X8		Y8	Z8	

1011	10.10000000	0.59578983	0.12603394	-0.52178978	0.08749627	-0.16529840	0.28587385	-0.65912355	0.47212070	1.63117858	0.24051430	0.90046189	2.04267648	0.78942573	-0.28521876	0.69137793	0.19808465	-0.60200411	0.68271289	-0.43836333	3.99969498	0.81019193	0.51173530	-0.43475110	-0.09912089
1012	10.11000000	0.61726398	0.15478673	-0.58230800	0.08178241	-0.14434635	0.29701499	-0.18860982	0.66787650	1.92647417	0.24278378	0.79904592	1.95872125	0.87565762	-0.24512135	0.71965795	0.39296058	-0.66956084	0.57745704	-0.38915285	4.50552781	1.01099172	0.60156903	-0.45071387	-0.13227299
1013	10.12000000	0.65692622	0.18490504	-0.62055321	0.08198621	-0.10599864	0.29983165	0.13349504	0.66993846	2.28895752	0.34791890	0.71607210	1.82721793	0.89712838	-0.21040544	0.73554664	0.52189540	-0.69228545	0.51520637	-0.37556703	4.81651741	1.14141321	0.63738608	-0.44036880	-0.15197009
1014	10.13000000	0.66748927	0.22006744	-0.64506153	0.08621365	-0.05837856	0.28541158	0.25877352	0.61679236	2.73817463	0.52340401	0.65986006	1.69575459	0.89090154	-0.14855495	0.72695819	0.56681203	-0.62315192	0.51833733	-0.41505147	4.93251790	1.23195008	0.65645385	-0.42489605	-0.12063646
1015	10.14000000	0.64610087	0.26001111	-0.64366512	0.09899225	-0.00189258	0.27791672	0.28221798	0.62235166	3.19502383	0.71065564	0.63906434	1.57261484	0.78762675	-0.11389989	0.71083498	0.60824716	-0.53419306	0.51300710	-0.48204124	4.89396675	1.31208984	0.61959534	-0.37187334	-0.09068748
1016	10.15000000	0.60347579	0.28839396	-0.62664675	0.10251008	0.06076195	0.27348467	0.25851602	0.74550714	3.55922985	0.84881979	0.62359993	1.47267907	0.70597414	-0.08222256	0.68547226	0.67149332	-0.42380330	0.54806508	-0.55524925	4.82743660	1.41383904	0.58341157	-0.35907733	-0.08070335
1017	10.16000000	0.53985737	0.29466532	-0.61019835	0.11432825	0.12266330	0.27316869	0.31574078	0.95392111	3.83896505	0.92198733	0.60755701	1.37530254	0.62302354	-0.06954779	0.66357755	0.74858788	-0.34353714	0.54566794	-0.58728260	4.79437997	1.54618417	0.55435343	-0.32785112	-0.07246948
1018	10.17000000	0.48715663	0.29165693	-0.59788173	0.12378650	0.15787484	0.28469089	0.52228810	1.11764624	4.13384236	0.95447886	0.58416655	1.22905764	0.53697882	-0.07534915	0.66001439	0.77397067	-0.27457550	0.56691343	-0.60077158	4.80792530	1.68980875	0.48786951	-0.32582714	-0.06823714
1019	10.18000000	0.43410048	0.28831786	-0.59715289	0.12936638	0.16546550	0.30245460	0.66336852	1.16314222	4.49357778	0.94599110	0.53760835	1.08061458	0.48778488	-0.06321232	0.67401110	0.76216183	-0.25217888	0.56289837	-0.61308374	4.87774780	1.78518894	0.50384866	-0.30610402	-0.10551413
1020	10.19000000	0.37171362	0.28166066	-0.58310700	0.13362171	0.16086242	0.33863549	0.49163259	1.16187512	4.84148655	0.90529819	0.46611998	0.91332613	0.45567758	-0.05050985	0.68514686	0.70713755	-0.26560428	0.55819852	-0.58246956	4.98209291	1.80593876	0.58356453	-0.33353227	-0.13410234
1021	10.20000000	0.32593685	0.26118583	-0.56352545	0.15550955	0.15425662	0.35970520	0.11010332	1.22524051	5.04209504	0.82805064	0.35334100	0.71787475	0.43739192	-0.04040307	0.65793466	0.61980709	-0.30146546	0.54037950	-0.51836524	5.05674884	1.77811237	0.56931756	-0.35411327	-0.12675209
1022	10.21000000	0.28574284	0.24460377	-0.52607047	0.18489137	0.14267919	0.37032521	-0.22715604	1.31292902	5.10480472	0.72304864	0.22369953	0.50953873	0.41867522	-0.03705255	0.64348355	0.51260385	-0.36139063	0.52428279	-0.49795091	5.10023291	1.74318238	0.51623985	-0.35928330	-0.10944591
1023	10.22000000	0.25046868	0.21212218	-0.45907378	0.23977550	0.14492146	0.38688511	-0.50775186	1.36894382	5.13572161	0.59861585	0.09036994	0.28799662	0.37356339	-0.01962259	0.65809843	0.45100554	-0.41195093	0.54111092	-0.47088167	5.09845612	1.70620160	0.45690774	-0.38908591	-0.07310929
1024	10.23000000	0.22179626	0.19476082	-0.39365853	0.28672296	0.14728338	0.37773521	-0.72397021	1.39058357	5.20280362	0.46238493	-0.03692300	0.07895087	0.33804257	-0.02739636	0.66368417	0.42219235	-0.42293169	0.59011708	-0.44393052	4.99256563	1.63699630	0.41134762	-0.37977504	-0.03413409
1025	10.24000000	0.17694954	0.18370349	-0.33055076	0.35722222	0.12483918	0.36955665	-0.90370155	1.35367921	5.29062906	0.31806026	-0.15140565	-0.12238373	0.35357595	-0.03769231	0.64776685	0.39294964	-0.38872726	0.64730372	-0.42000238	4.85572310	1.50541380	0.33916950	-0.42446375	0.04135164
1026	10.25000000	0.12514203	0.17249233	-0.28343151	0.43070577	0.08108100	0.36415908	-0.97423762	1.26768393	5.35348987	0.18706134	-0.23893713	-0.31643132	0.37137056	-0.03787467	0.64450904	0.35244709	-0.33667071	0.68400961	-0.42265392	4.85969371	1.36599478	0.26558096	-0.44298948	0.09962387
1027	10.26000000	0.07551494	0.15186150	-0.24736945	0.51719895	0.01740116	0.34021603	-0.89624545	1.20341869	5.38972300	0.09473387	-0.29820614	-0.49229676	0.43577902	-0.04684737	0.66136103	0.30955027	-0.27958227	0.69346872	-0.40568093	4.97121998	1.27076889	0.25095417	-0.47666003	0.14842032
1028	10.27000000	0.04684059	0.12853809	-0.20318256	0.61602337	-0.03611112	0.32780922	-0.75100929	1.16560802	5.40026078	0.00982228	-0.34641575	-0.65348191	0.51592529	-0.04467723	0.68569124	0.28737199	-0.25490423	0.68950576	-0.38852309	4.94401736	1.19853777	0.24531451	-0.48763259	0.19535011
1029	10.28000000	-0.00765344	0.10378879	-0.15170807	0.67912459	-0.07714108	0.29541132	-0.57825670	1.03011892	5.31858568	-0.06701979	-0.40897057	-0.77087836	0.57871473	-0.03404223	0.70584175	0.29585149	-0.25503509	0.68348097	-0.44615661	4.74417535	1.21641403	0.23293685	-0.51500638	0.22678033
1030	10.29000000	-0.08737590	0.08143131	-0.09065945	0.68480933	-0.12931456	0.24036003	-0.50755892	0.86338819	5.08592240	-0.12882072	-0.45231589	-0.81880953	0.64272419	0.00394072	0.68924577	0.33318286	-0.26682603	0.69585359	-0.52369556	4.49577986	1.32461812	0.21704667	-0.53647246	0.26110836
1031	10.30000000	-0.13821118	0.06590909	-0.04511527	0.66182742	-0.17018738	0.18418190	-0.59971660	0.74877870	4.75521654	-0.12445386	-0.43748797	-0.82759853	0.62417235	0.00785746	0.67036140	0.39226593	-0.30374335	0.70674929	-0.53621981	4.21948769	1.46070896	0.21928390	-0.54979740	0.27245624
1032	10.31000000	-0.17395467	0.04119306	0.00106206	0.62651126	-0.18884906	0.13637879	-0.75975288	0.65803831	4.41654725	-0.07911815	-0.37869299	-0.81633785	0.58041238	0.02338555	0.69354394	0.42754967	-0.32425008	0.76631389	-0.43754134	3.93770628	1.51369362	0.24126279	-0.56501658	0.26965855
1033	10.32000000	-0.22299601	0.00399095	0.05164935	0.59775865	-0.19542426	0.09389388	-0.92678195	0.54510860	4.07464727	-0.00513541	-0.32416778	-0.78742327	0.52624146	0.04007798	0.72719678	0.46265622	-0.32378622	0.81442401	-0.22990247	3.65532790	1.42666827	0.22056042	-0.54835483	0.28389715
1034	10.33000000	-0.25374298	-0.01464276	0.10476467	0.57457268	-0.19310069	0.05988347	-0.95208700	0.39197976	3.72866486	0.05422143	-0.32477868	-0.72925751	0.44997681	0.05759600	0.74437840	0.48894166	-0.31869254	0.84447926	0.02984226	3.33989934	1.19828993	0.21129359	-0.57762813	0.31663300
1035	10.34000000	-0.27119070	-0.01589314	0.14779969	0.54343684	-0.19895644	0.02809762	-0.73838236	0.21951693	3.29095976	0.05666065	-0.40257661	-0.66886699	0.40308541	0.03931248	0.75174407	0.52912139	-0.32674377	0.83380381	0.20386968	2.92850860	0.85081767	0.20504623	-0.60882626	0.37075403
1036	10.35000000	-0.29043691	-0.01437651	0.18496926	0.49792333	-0.20115846	-0.00008987	-0.31849592	0.11240398	2.66049134	-0.00606582	-0.50664430	-0.64017840	0.38692653	0.04422395	0.78481739	0.55983244	-0.34042046	0.78780856	0.09512832	2.35722835	0.47565356	0.13844827	-0.64781142	0.41867364
1037	10.36000000	-0.30000410	-0.01642492	0.21912410	0.44043204	-0.20783923	0.00448693	0.14583009	0.00095970	1.89324089	-0.09289121	-0.52631194	-0.54821992	0.36593989	0.02832275	0.86924662	0.55511382	-0.34688179	0.75042393	-0.26572682	1.66915931	0.17017928	0.12676028	-0.69381605	0.43661220
1038	10.37000000	-0.29496339	-0.02137544	0.24879733	0.36863511	-0.20045599	0.00749079	0.33571298	-0.15753280	1.04714398	-0.12963559	-0.40718970	-0.33695502	0.42663246	0.04120514	0.93536839	0.51246456	-0.34231892	0.68032682	-0.56282831	0.97942901	0.01989655	0.13445480	-0.76936506	0.41756547
1039	10.38000000	-0.29678321	-0.04668040	0.27984881	0.30580387	-0.18063798	0.02215749	0.30892307	-0.26408271	0.15897117	-0.08967690	-0.21782037	-0.03702460	0.50013463	0.05399919	0.99191149	0.41209801	-0.31956223	0.62751676	-0.49661952	0.25442380	-0.02660966	0.14507807	-0.85852122	0.40721620
1040	10.39000000	-0.26817138	-0.08441975	0.29033744	0.25659827	-0.16048896	0.00766775	0.27034014	-0.37161999	-0.67720596	-0.01360960	-0.02649862	0.29772861	0.52929657	0.04702647	1.06616046	0.36419293	-0.30474831	0.53386836	-0.10691401	-0.48796334	-0.04080130	0.19373752	-0.95759587	0.36779085
1041	10.40000000	-0.26762583	-0.14087276	0.30293027	0.27885340	-0.14671974	0.00701714	0.26632978	-0.46219254	-1.36303323	0.03239649	0.06543705	0.55406058	0.53779071	0.04743619	1.16752236	0.33091549	-0.25708116	0.46762591	0.54028004	-1.25586386	-0.15187831	0.26724906	-1.06740221	0.30980695
